<svg aria-roledescription="er" role="graphics-document document" viewBox="0 0 1176.4130859375 752" style="max-width: 1176.41px; background-color: white;" xmlns:xlink="http://www.w3.org/1999/xlink" xmlns="http://www.w3.org/2000/svg" width="100%" id="my-svg"><style>#my-svg{font-family:"trebuchet ms",verdana,arial,sans-serif;font-size:16px;fill:#333;}#my-svg .error-icon{fill:#552222;}#my-svg .error-text{fill:#552222;stroke:#552222;}#my-svg .edge-thickness-normal{stroke-width:2px;}#my-svg .edge-thickness-thick{stroke-width:3.5px;}#my-svg .edge-pattern-solid{stroke-dasharray:0;}#my-svg .edge-pattern-dashed{stroke-dasharray:3;}#my-svg .edge-pattern-dotted{stroke-dasharray:2;}#my-svg .marker{fill:#333333;stroke:#333333;}#my-svg .marker.cross{stroke:#333333;}#my-svg svg{font-family:"trebuchet ms",verdana,arial,sans-serif;font-size:16px;}#my-svg .entityBox{fill:#ECECFF;stroke:#9370DB;}#my-svg .attributeBoxOdd{fill:#ffffff;stroke:#9370DB;}#my-svg .attributeBoxEven{fill:#f2f2f2;stroke:#9370DB;}#my-svg .relationshipLabelBox{fill:hsl(80, 100%, 96.2745098039%);opacity:0.7;background-color:hsl(80, 100%, 96.2745098039%);}#my-svg .relationshipLabelBox rect{opacity:0.5;}#my-svg .relationshipLine{stroke:#333333;}#my-svg .entityTitleText{text-anchor:middle;font-size:18px;fill:#333;}#my-svg #MD_PARENT_START{fill:#f5f5f5!important;stroke:#333333!important;stroke-width:1;}#my-svg #MD_PARENT_END{fill:#f5f5f5!important;stroke:#333333!important;stroke-width:1;}#my-svg :root{--mermaid-font-family:"trebuchet ms",verdana,arial,sans-serif;}</style><g/><defs><marker orient="auto" markerHeight="240" markerWidth="190" refY="7" refX="0" id="MD_PARENT_START"><path d="M 18,7 L9,13 L1,7 L9,1 Z"/></marker></defs><defs><marker orient="auto" markerHeight="28" markerWidth="20" refY="7" refX="19" id="MD_PARENT_END"><path d="M 18,7 L9,13 L1,7 L9,1 Z"/></marker></defs><defs><marker orient="auto" markerHeight="18" markerWidth="18" refY="9" refX="0" id="ONLY_ONE_START"><path d="M9,0 L9,18 M15,0 L15,18" fill="none" stroke="gray"/></marker></defs><defs><marker orient="auto" markerHeight="18" markerWidth="18" refY="9" refX="18" id="ONLY_ONE_END"><path d="M3,0 L3,18 M9,0 L9,18" fill="none" stroke="gray"/></marker></defs><defs><marker orient="auto" markerHeight="18" markerWidth="30" refY="9" refX="0" id="ZERO_OR_ONE_START"><circle r="6" cy="9" cx="21" fill="white" stroke="gray"/><path d="M9,0 L9,18" fill="none" stroke="gray"/></marker></defs><defs><marker orient="auto" markerHeight="18" markerWidth="30" refY="9" refX="30" id="ZERO_OR_ONE_END"><circle r="6" cy="9" cx="9" fill="white" stroke="gray"/><path d="M21,0 L21,18" fill="none" stroke="gray"/></marker></defs><defs><marker orient="auto" markerHeight="36" markerWidth="45" refY="18" refX="18" id="ONE_OR_MORE_START"><path d="M0,18 Q 18,0 36,18 Q 18,36 0,18 M42,9 L42,27" fill="none" stroke="gray"/></marker></defs><defs><marker orient="auto" markerHeight="36" markerWidth="45" refY="18" refX="27" id="ONE_OR_MORE_END"><path d="M3,9 L3,27 M9,18 Q27,0 45,18 Q27,36 9,18" fill="none" stroke="gray"/></marker></defs><defs><marker orient="auto" markerHeight="36" markerWidth="57" refY="18" refX="18" id="ZERO_OR_MORE_START"><circle r="6" cy="18" cx="48" fill="white" stroke="gray"/><path d="M0,18 Q18,0 36,18 Q18,36 0,18" fill="none" stroke="gray"/></marker></defs><defs><marker orient="auto" markerHeight="36" markerWidth="57" refY="18" refX="39" id="ZERO_OR_MORE_END"><circle r="6" cy="18" cx="9" fill="white" stroke="gray"/><path d="M21,18 Q39,0 57,18 Q39,36 21,18" fill="none" stroke="gray"/></marker></defs><path style="stroke: gray; fill: none;" marker-start="url(#ONLY_ONE_START)" marker-end="url(#ZERO_OR_MORE_END)" d="M532.87,113.383L470.111,128.486C407.352,143.589,281.834,173.794,224.53,210.064C167.227,246.333,178.137,288.667,183.593,309.833L189.048,331" class="er relationshipLine"/><path style="stroke: gray; fill: none;" marker-start="url(#ONLY_ONE_START)" marker-end="url(#ZERO_OR_MORE_END)" d="M671.137,154L674.698,162.333C678.259,170.667,685.382,187.333,688.943,204C692.504,220.667,692.504,237.333,692.504,245.667L692.504,254" class="er relationshipLine"/><path style="stroke: gray; fill: none;" marker-start="url(#ONLY_ONE_START)" marker-end="url(#ZERO_OR_MORE_END)" d="M206.316,465L206.316,486.167C206.316,507.333,206.316,549.667,309.987,583.363C413.657,617.058,620.999,642.117,724.669,654.646L828.34,667.175" class="er relationshipLine"/><path style="stroke: gray; fill: none;" marker-start="url(#ONLY_ONE_START)" marker-end="url(#ONLY_ONE_END)" d="M273.003,331L294.071,309.833C315.139,288.667,357.275,246.333,400.586,214.461C443.897,182.589,488.383,161.178,510.627,150.472L532.87,139.767" class="er relationshipLine"/><path style="stroke: gray; fill: none;" marker-start="url(#ONLY_ONE_START)" marker-end="url(#ONLY_ONE_END)" d="M992.376,642L992.376,633.667C992.376,625.333,992.376,608.667,992.376,568C992.376,527.333,992.376,462.667,992.376,398C992.376,333.333,992.376,268.667,952.337,222.944C912.297,177.221,832.218,150.442,792.179,137.052L752.139,123.663" class="er relationshipLine"/><path style="stroke: gray; fill: none;" marker-start="url(#ONLY_ONE_START)" marker-end="url(#ONLY_ONE_END)" d="M1039.745,642L1048.517,633.667C1057.289,625.333,1074.833,608.667,966.981,574.799C859.128,540.931,625.88,489.862,509.256,464.328L392.632,438.793" class="er relationshipLine"/><g transform="translate(532.8698654174805,20 )" id="entity-USERS-1e82e395-936c-57a7-8ba9-b08f03574b93"><rect height="134" width="219.26905822753906" y="0" x="0" class="er entityBox"/><text style="dominant-baseline: middle; text-anchor: middle; font-size: 12px;" transform="translate(109.63452911376953,12)" y="0" x="0" id="text-entity-USERS-1e82e395-936c-57a7-8ba9-b08f03574b93" class="er entityLabel">USERS</text><rect height="22" width="58.98138427734375" y="24" x="0" class="er attributeBoxOdd"/><text style="dominant-baseline: middle; font-size: 10.2px;" transform="translate(5,35)" y="0" x="0" id="text-entity-USERS-1e82e395-936c-57a7-8ba9-b08f03574b93-attr-1-type" class="er entityLabel">text</text><rect height="22" width="71.31796264648438" y="24" x="58.98138427734375" class="er attributeBoxOdd"/><text style="dominant-baseline: middle; font-size: 10.2px;" transform="translate(63.98138427734375,35)" y="0" x="0" id="text-entity-USERS-1e82e395-936c-57a7-8ba9-b08f03574b93-attr-1-name" class="er entityLabel">id</text><rect height="22" width="22.68768310546875" y="24" x="130.29934692382812" class="er attributeBoxOdd"/><text style="dominant-baseline: middle; font-size: 10.2px;" transform="translate(135.29934692382812,35)" y="0" x="0" id="text-entity-USERS-1e82e395-936c-57a7-8ba9-b08f03574b93-attr-1-key" class="er entityLabel">PK</text><rect height="22" width="66.28202819824219" y="24" x="152.98703002929688" class="er attributeBoxOdd"/><text style="dominant-baseline: middle; font-size: 10.2px;" transform="translate(157.98703002929688,35)" y="0" x="0" id="text-entity-USERS-1e82e395-936c-57a7-8ba9-b08f03574b93-attr-1-comment" class="er entityLabel">primaryKey</text><rect height="22" width="58.98138427734375" y="46" x="0" class="er attributeBoxEven"/><text style="dominant-baseline: middle; font-size: 10.2px;" transform="translate(5,57)" y="0" x="0" id="text-entity-USERS-1e82e395-936c-57a7-8ba9-b08f03574b93-attr-2-type" class="er entityLabel">text</text><rect height="22" width="71.31796264648438" y="46" x="58.98138427734375" class="er attributeBoxEven"/><text style="dominant-baseline: middle; font-size: 10.2px;" transform="translate(63.98138427734375,57)" y="0" x="0" id="text-entity-USERS-1e82e395-936c-57a7-8ba9-b08f03574b93-attr-2-name" class="er entityLabel">name</text><rect height="22" width="22.68768310546875" y="46" x="130.29934692382812" class="er attributeBoxEven"/><text style="dominant-baseline: middle; font-size: 10.2px;" transform="translate(135.29934692382812,57)" y="0" x="0" id="text-entity-USERS-1e82e395-936c-57a7-8ba9-b08f03574b93-attr-2-key" class="er entityLabel"/><rect height="22" width="66.28202819824219" y="46" x="152.98703002929688" class="er attributeBoxEven"/><text style="dominant-baseline: middle; font-size: 10.2px;" transform="translate(157.98703002929688,57)" y="0" x="0" id="text-entity-USERS-1e82e395-936c-57a7-8ba9-b08f03574b93-attr-2-comment" class="er entityLabel"/><rect height="22" width="58.98138427734375" y="68" x="0" class="er attributeBoxOdd"/><text style="dominant-baseline: middle; font-size: 10.2px;" transform="translate(5,79)" y="0" x="0" id="text-entity-USERS-1e82e395-936c-57a7-8ba9-b08f03574b93-attr-3-type" class="er entityLabel">text</text><rect height="22" width="71.31796264648438" y="68" x="58.98138427734375" class="er attributeBoxOdd"/><text style="dominant-baseline: middle; font-size: 10.2px;" transform="translate(63.98138427734375,79)" y="0" x="0" id="text-entity-USERS-1e82e395-936c-57a7-8ba9-b08f03574b93-attr-3-name" class="er entityLabel">email</text><rect height="22" width="22.68768310546875" y="68" x="130.29934692382812" class="er attributeBoxOdd"/><text style="dominant-baseline: middle; font-size: 10.2px;" transform="translate(135.29934692382812,79)" y="0" x="0" id="text-entity-USERS-1e82e395-936c-57a7-8ba9-b08f03574b93-attr-3-key" class="er entityLabel"/><rect height="22" width="66.28202819824219" y="68" x="152.98703002929688" class="er attributeBoxOdd"/><text style="dominant-baseline: middle; font-size: 10.2px;" transform="translate(157.98703002929688,79)" y="0" x="0" id="text-entity-USERS-1e82e395-936c-57a7-8ba9-b08f03574b93-attr-3-comment" class="er entityLabel">notNull</text><rect height="22" width="58.98138427734375" y="90" x="0" class="er attributeBoxEven"/><text style="dominant-baseline: middle; font-size: 10.2px;" transform="translate(5,101)" y="0" x="0" id="text-entity-USERS-1e82e395-936c-57a7-8ba9-b08f03574b93-attr-4-type" class="er entityLabel">timestamp</text><rect height="22" width="71.31796264648438" y="90" x="58.98138427734375" class="er attributeBoxEven"/><text style="dominant-baseline: middle; font-size: 10.2px;" transform="translate(63.98138427734375,101)" y="0" x="0" id="text-entity-USERS-1e82e395-936c-57a7-8ba9-b08f03574b93-attr-4-name" class="er entityLabel">emailVerified</text><rect height="22" width="22.68768310546875" y="90" x="130.29934692382812" class="er attributeBoxEven"/><text style="dominant-baseline: middle; font-size: 10.2px;" transform="translate(135.29934692382812,101)" y="0" x="0" id="text-entity-USERS-1e82e395-936c-57a7-8ba9-b08f03574b93-attr-4-key" class="er entityLabel"/><rect height="22" width="66.28202819824219" y="90" x="152.98703002929688" class="er attributeBoxEven"/><text style="dominant-baseline: middle; font-size: 10.2px;" transform="translate(157.98703002929688,101)" y="0" x="0" id="text-entity-USERS-1e82e395-936c-57a7-8ba9-b08f03574b93-attr-4-comment" class="er entityLabel">mode: 'date'</text><rect height="22" width="58.98138427734375" y="112" x="0" class="er attributeBoxOdd"/><text style="dominant-baseline: middle; font-size: 10.2px;" transform="translate(5,123)" y="0" x="0" id="text-entity-USERS-1e82e395-936c-57a7-8ba9-b08f03574b93-attr-5-type" class="er entityLabel">text</text><rect height="22" width="71.31796264648438" y="112" x="58.98138427734375" class="er attributeBoxOdd"/><text style="dominant-baseline: middle; font-size: 10.2px;" transform="translate(63.98138427734375,123)" y="0" x="0" id="text-entity-USERS-1e82e395-936c-57a7-8ba9-b08f03574b93-attr-5-name" class="er entityLabel">image</text><rect height="22" width="22.68768310546875" y="112" x="130.29934692382812" class="er attributeBoxOdd"/><text style="dominant-baseline: middle; font-size: 10.2px;" transform="translate(135.29934692382812,123)" y="0" x="0" id="text-entity-USERS-1e82e395-936c-57a7-8ba9-b08f03574b93-attr-5-key" class="er entityLabel"/><rect height="22" width="66.28202819824219" y="112" x="152.98703002929688" class="er attributeBoxOdd"/><text style="dominant-baseline: middle; font-size: 10.2px;" transform="translate(157.98703002929688,123)" y="0" x="0" id="text-entity-USERS-1e82e395-936c-57a7-8ba9-b08f03574b93-attr-5-comment" class="er entityLabel"/></g><g transform="translate(20,331 )" id="entity-POSTS-8b9e29bd-1bb5-5e7b-b4e1-8fd7a8ad1a35"><rect height="134" width="372.6322937011719" y="0" x="0" class="er entityBox"/><text style="dominant-baseline: middle; text-anchor: middle; font-size: 12px;" transform="translate(186.31614685058594,12)" y="0" x="0" id="text-entity-POSTS-8b9e29bd-1bb5-5e7b-b4e1-8fd7a8ad1a35" class="er entityLabel">POSTS</text><rect height="22" width="58.98138427734375" y="24" x="0" class="er attributeBoxOdd"/><text style="dominant-baseline: middle; font-size: 10.2px;" transform="translate(5,35)" y="0" x="0" id="text-entity-POSTS-8b9e29bd-1bb5-5e7b-b4e1-8fd7a8ad1a35-attr-1-type" class="er entityLabel">text</text><rect height="22" width="58.98138427734375" y="24" x="58.98138427734375" class="er attributeBoxOdd"/><text style="dominant-baseline: middle; font-size: 10.2px;" transform="translate(63.98138427734375,35)" y="0" x="0" id="text-entity-POSTS-8b9e29bd-1bb5-5e7b-b4e1-8fd7a8ad1a35-attr-1-name" class="er entityLabel">id</text><rect height="22" width="22.68768310546875" y="24" x="117.9627685546875" class="er attributeBoxOdd"/><text style="dominant-baseline: middle; font-size: 10.2px;" transform="translate(122.9627685546875,35)" y="0" x="0" id="text-entity-POSTS-8b9e29bd-1bb5-5e7b-b4e1-8fd7a8ad1a35-attr-1-key" class="er entityLabel">PK</text><rect height="22" width="231.98184204101562" y="24" x="140.65045166015625" class="er attributeBoxOdd"/><text style="dominant-baseline: middle; font-size: 10.2px;" transform="translate(145.65045166015625,35)" y="0" x="0" id="text-entity-POSTS-8b9e29bd-1bb5-5e7b-b4e1-8fd7a8ad1a35-attr-1-comment" class="er entityLabel">primaryKey, notNull</text><rect height="22" width="58.98138427734375" y="46" x="0" class="er attributeBoxEven"/><text style="dominant-baseline: middle; font-size: 10.2px;" transform="translate(5,57)" y="0" x="0" id="text-entity-POSTS-8b9e29bd-1bb5-5e7b-b4e1-8fd7a8ad1a35-attr-2-type" class="er entityLabel">text</text><rect height="22" width="58.98138427734375" y="46" x="58.98138427734375" class="er attributeBoxEven"/><text style="dominant-baseline: middle; font-size: 10.2px;" transform="translate(63.98138427734375,57)" y="0" x="0" id="text-entity-POSTS-8b9e29bd-1bb5-5e7b-b4e1-8fd7a8ad1a35-attr-2-name" class="er entityLabel">content</text><rect height="22" width="22.68768310546875" y="46" x="117.9627685546875" class="er attributeBoxEven"/><text style="dominant-baseline: middle; font-size: 10.2px;" transform="translate(122.9627685546875,57)" y="0" x="0" id="text-entity-POSTS-8b9e29bd-1bb5-5e7b-b4e1-8fd7a8ad1a35-attr-2-key" class="er entityLabel"/><rect height="22" width="231.98184204101562" y="46" x="140.65045166015625" class="er attributeBoxEven"/><text style="dominant-baseline: middle; font-size: 10.2px;" transform="translate(145.65045166015625,57)" y="0" x="0" id="text-entity-POSTS-8b9e29bd-1bb5-5e7b-b4e1-8fd7a8ad1a35-attr-2-comment" class="er entityLabel">notNull</text><rect height="22" width="58.98138427734375" y="68" x="0" class="er attributeBoxOdd"/><text style="dominant-baseline: middle; font-size: 10.2px;" transform="translate(5,79)" y="0" x="0" id="text-entity-POSTS-8b9e29bd-1bb5-5e7b-b4e1-8fd7a8ad1a35-attr-3-type" class="er entityLabel">text</text><rect height="22" width="58.98138427734375" y="68" x="58.98138427734375" class="er attributeBoxOdd"/><text style="dominant-baseline: middle; font-size: 10.2px;" transform="translate(63.98138427734375,79)" y="0" x="0" id="text-entity-POSTS-8b9e29bd-1bb5-5e7b-b4e1-8fd7a8ad1a35-attr-3-name" class="er entityLabel">image</text><rect height="22" width="22.68768310546875" y="68" x="117.9627685546875" class="er attributeBoxOdd"/><text style="dominant-baseline: middle; font-size: 10.2px;" transform="translate(122.9627685546875,79)" y="0" x="0" id="text-entity-POSTS-8b9e29bd-1bb5-5e7b-b4e1-8fd7a8ad1a35-attr-3-key" class="er entityLabel"/><rect height="22" width="231.98184204101562" y="68" x="140.65045166015625" class="er attributeBoxOdd"/><text style="dominant-baseline: middle; font-size: 10.2px;" transform="translate(145.65045166015625,79)" y="0" x="0" id="text-entity-POSTS-8b9e29bd-1bb5-5e7b-b4e1-8fd7a8ad1a35-attr-3-comment" class="er entityLabel"/><rect height="22" width="58.98138427734375" y="90" x="0" class="er attributeBoxEven"/><text style="dominant-baseline: middle; font-size: 10.2px;" transform="translate(5,101)" y="0" x="0" id="text-entity-POSTS-8b9e29bd-1bb5-5e7b-b4e1-8fd7a8ad1a35-attr-4-type" class="er entityLabel">timestamp</text><rect height="22" width="58.98138427734375" y="90" x="58.98138427734375" class="er attributeBoxEven"/><text style="dominant-baseline: middle; font-size: 10.2px;" transform="translate(63.98138427734375,101)" y="0" x="0" id="text-entity-POSTS-8b9e29bd-1bb5-5e7b-b4e1-8fd7a8ad1a35-attr-4-name" class="er entityLabel">timestamp</text><rect height="22" width="22.68768310546875" y="90" x="117.9627685546875" class="er attributeBoxEven"/><text style="dominant-baseline: middle; font-size: 10.2px;" transform="translate(122.9627685546875,101)" y="0" x="0" id="text-entity-POSTS-8b9e29bd-1bb5-5e7b-b4e1-8fd7a8ad1a35-attr-4-key" class="er entityLabel"/><rect height="22" width="231.98184204101562" y="90" x="140.65045166015625" class="er attributeBoxEven"/><text style="dominant-baseline: middle; font-size: 10.2px;" transform="translate(145.65045166015625,101)" y="0" x="0" id="text-entity-POSTS-8b9e29bd-1bb5-5e7b-b4e1-8fd7a8ad1a35-attr-4-comment" class="er entityLabel">defaultNow()</text><rect height="22" width="58.98138427734375" y="112" x="0" class="er attributeBoxOdd"/><text style="dominant-baseline: middle; font-size: 10.2px;" transform="translate(5,123)" y="0" x="0" id="text-entity-POSTS-8b9e29bd-1bb5-5e7b-b4e1-8fd7a8ad1a35-attr-5-type" class="er entityLabel">text</text><rect height="22" width="58.98138427734375" y="112" x="58.98138427734375" class="er attributeBoxOdd"/><text style="dominant-baseline: middle; font-size: 10.2px;" transform="translate(63.98138427734375,123)" y="0" x="0" id="text-entity-POSTS-8b9e29bd-1bb5-5e7b-b4e1-8fd7a8ad1a35-attr-5-name" class="er entityLabel">userId</text><rect height="22" width="22.68768310546875" y="112" x="117.9627685546875" class="er attributeBoxOdd"/><text style="dominant-baseline: middle; font-size: 10.2px;" transform="translate(122.9627685546875,123)" y="0" x="0" id="text-entity-POSTS-8b9e29bd-1bb5-5e7b-b4e1-8fd7a8ad1a35-attr-5-key" class="er entityLabel"/><rect height="22" width="231.98184204101562" y="112" x="140.65045166015625" class="er attributeBoxOdd"/><text style="dominant-baseline: middle; font-size: 10.2px;" transform="translate(145.65045166015625,123)" y="0" x="0" id="text-entity-POSTS-8b9e29bd-1bb5-5e7b-b4e1-8fd7a8ad1a35-attr-5-comment" class="er entityLabel">notNull, references users.id, onDelete: 'cascade'</text></g><g transform="translate(492.6322937011719,254 )" id="entity-ACCOUNTS-ab5fcd47-121e-5e80-a051-e8e442829b86"><rect height="288" width="399.7442169189453" y="0" x="0" class="er entityBox"/><text style="dominant-baseline: middle; text-anchor: middle; font-size: 12px;" transform="translate(199.87210845947266,12)" y="0" x="0" id="text-entity-ACCOUNTS-ab5fcd47-121e-5e80-a051-e8e442829b86" class="er entityLabel">ACCOUNTS</text><rect height="22" width="73.90780639648438" y="24" x="0" class="er attributeBoxOdd"/><text style="dominant-baseline: middle; font-size: 10.2px;" transform="translate(5,35)" y="0" x="0" id="text-entity-ACCOUNTS-ab5fcd47-121e-5e80-a051-e8e442829b86-attr-1-type" class="er entityLabel">text</text><rect height="22" width="93.85456848144531" y="24" x="73.90780639648438" class="er attributeBoxOdd"/><text style="dominant-baseline: middle; font-size: 10.2px;" transform="translate(78.90780639648438,35)" y="0" x="0" id="text-entity-ACCOUNTS-ab5fcd47-121e-5e80-a051-e8e442829b86-attr-1-name" class="er entityLabel">userId</text><rect height="22" width="231.98184204101562" y="24" x="167.7623748779297" class="er attributeBoxOdd"/><text style="dominant-baseline: middle; font-size: 10.2px;" transform="translate(172.7623748779297,35)" y="0" x="0" id="text-entity-ACCOUNTS-ab5fcd47-121e-5e80-a051-e8e442829b86-attr-1-comment" class="er entityLabel">notNull, references users.id, onDelete: 'cascade'</text><rect height="22" width="73.90780639648438" y="46" x="0" class="er attributeBoxEven"/><text style="dominant-baseline: middle; font-size: 10.2px;" transform="translate(5,57)" y="0" x="0" id="text-entity-ACCOUNTS-ab5fcd47-121e-5e80-a051-e8e442829b86-attr-2-type" class="er entityLabel">text</text><rect height="22" width="93.85456848144531" y="46" x="73.90780639648438" class="er attributeBoxEven"/><text style="dominant-baseline: middle; font-size: 10.2px;" transform="translate(78.90780639648438,57)" y="0" x="0" id="text-entity-ACCOUNTS-ab5fcd47-121e-5e80-a051-e8e442829b86-attr-2-name" class="er entityLabel">type</text><rect height="22" width="231.98184204101562" y="46" x="167.7623748779297" class="er attributeBoxEven"/><text style="dominant-baseline: middle; font-size: 10.2px;" transform="translate(172.7623748779297,57)" y="0" x="0" id="text-entity-ACCOUNTS-ab5fcd47-121e-5e80-a051-e8e442829b86-attr-2-comment" class="er entityLabel">notNull, AdapterAccount type&gt;</text><rect height="22" width="73.90780639648438" y="68" x="0" class="er attributeBoxOdd"/><text style="dominant-baseline: middle; font-size: 10.2px;" transform="translate(5,79)" y="0" x="0" id="text-entity-ACCOUNTS-ab5fcd47-121e-5e80-a051-e8e442829b86-attr-3-type" class="er entityLabel">text</text><rect height="22" width="93.85456848144531" y="68" x="73.90780639648438" class="er attributeBoxOdd"/><text style="dominant-baseline: middle; font-size: 10.2px;" transform="translate(78.90780639648438,79)" y="0" x="0" id="text-entity-ACCOUNTS-ab5fcd47-121e-5e80-a051-e8e442829b86-attr-3-name" class="er entityLabel">provider</text><rect height="22" width="231.98184204101562" y="68" x="167.7623748779297" class="er attributeBoxOdd"/><text style="dominant-baseline: middle; font-size: 10.2px;" transform="translate(172.7623748779297,79)" y="0" x="0" id="text-entity-ACCOUNTS-ab5fcd47-121e-5e80-a051-e8e442829b86-attr-3-comment" class="er entityLabel">notNull</text><rect height="22" width="73.90780639648438" y="90" x="0" class="er attributeBoxEven"/><text style="dominant-baseline: middle; font-size: 10.2px;" transform="translate(5,101)" y="0" x="0" id="text-entity-ACCOUNTS-ab5fcd47-121e-5e80-a051-e8e442829b86-attr-4-type" class="er entityLabel">text</text><rect height="22" width="93.85456848144531" y="90" x="73.90780639648438" class="er attributeBoxEven"/><text style="dominant-baseline: middle; font-size: 10.2px;" transform="translate(78.90780639648438,101)" y="0" x="0" id="text-entity-ACCOUNTS-ab5fcd47-121e-5e80-a051-e8e442829b86-attr-4-name" class="er entityLabel">providerAccountId</text><rect height="22" width="231.98184204101562" y="90" x="167.7623748779297" class="er attributeBoxEven"/><text style="dominant-baseline: middle; font-size: 10.2px;" transform="translate(172.7623748779297,101)" y="0" x="0" id="text-entity-ACCOUNTS-ab5fcd47-121e-5e80-a051-e8e442829b86-attr-4-comment" class="er entityLabel">notNull</text><rect height="22" width="73.90780639648438" y="112" x="0" class="er attributeBoxOdd"/><text style="dominant-baseline: middle; font-size: 10.2px;" transform="translate(5,123)" y="0" x="0" id="text-entity-ACCOUNTS-ab5fcd47-121e-5e80-a051-e8e442829b86-attr-5-type" class="er entityLabel">text</text><rect height="22" width="93.85456848144531" y="112" x="73.90780639648438" class="er attributeBoxOdd"/><text style="dominant-baseline: middle; font-size: 10.2px;" transform="translate(78.90780639648438,123)" y="0" x="0" id="text-entity-ACCOUNTS-ab5fcd47-121e-5e80-a051-e8e442829b86-attr-5-name" class="er entityLabel">refresh_token</text><rect height="22" width="231.98184204101562" y="112" x="167.7623748779297" class="er attributeBoxOdd"/><text style="dominant-baseline: middle; font-size: 10.2px;" transform="translate(172.7623748779297,123)" y="0" x="0" id="text-entity-ACCOUNTS-ab5fcd47-121e-5e80-a051-e8e442829b86-attr-5-comment" class="er entityLabel"/><rect height="22" width="73.90780639648438" y="134" x="0" class="er attributeBoxEven"/><text style="dominant-baseline: middle; font-size: 10.2px;" transform="translate(5,145)" y="0" x="0" id="text-entity-ACCOUNTS-ab5fcd47-121e-5e80-a051-e8e442829b86-attr-6-type" class="er entityLabel">text</text><rect height="22" width="93.85456848144531" y="134" x="73.90780639648438" class="er attributeBoxEven"/><text style="dominant-baseline: middle; font-size: 10.2px;" transform="translate(78.90780639648438,145)" y="0" x="0" id="text-entity-ACCOUNTS-ab5fcd47-121e-5e80-a051-e8e442829b86-attr-6-name" class="er entityLabel">access_token</text><rect height="22" width="231.98184204101562" y="134" x="167.7623748779297" class="er attributeBoxEven"/><text style="dominant-baseline: middle; font-size: 10.2px;" transform="translate(172.7623748779297,145)" y="0" x="0" id="text-entity-ACCOUNTS-ab5fcd47-121e-5e80-a051-e8e442829b86-attr-6-comment" class="er entityLabel"/><rect height="22" width="73.90780639648438" y="156" x="0" class="er attributeBoxOdd"/><text style="dominant-baseline: middle; font-size: 10.2px;" transform="translate(5,167)" y="0" x="0" id="text-entity-ACCOUNTS-ab5fcd47-121e-5e80-a051-e8e442829b86-attr-7-type" class="er entityLabel">integer</text><rect height="22" width="93.85456848144531" y="156" x="73.90780639648438" class="er attributeBoxOdd"/><text style="dominant-baseline: middle; font-size: 10.2px;" transform="translate(78.90780639648438,167)" y="0" x="0" id="text-entity-ACCOUNTS-ab5fcd47-121e-5e80-a051-e8e442829b86-attr-7-name" class="er entityLabel">expires_at</text><rect height="22" width="231.98184204101562" y="156" x="167.7623748779297" class="er attributeBoxOdd"/><text style="dominant-baseline: middle; font-size: 10.2px;" transform="translate(172.7623748779297,167)" y="0" x="0" id="text-entity-ACCOUNTS-ab5fcd47-121e-5e80-a051-e8e442829b86-attr-7-comment" class="er entityLabel"/><rect height="22" width="73.90780639648438" y="178" x="0" class="er attributeBoxEven"/><text style="dominant-baseline: middle; font-size: 10.2px;" transform="translate(5,189)" y="0" x="0" id="text-entity-ACCOUNTS-ab5fcd47-121e-5e80-a051-e8e442829b86-attr-8-type" class="er entityLabel">text</text><rect height="22" width="93.85456848144531" y="178" x="73.90780639648438" class="er attributeBoxEven"/><text style="dominant-baseline: middle; font-size: 10.2px;" transform="translate(78.90780639648438,189)" y="0" x="0" id="text-entity-ACCOUNTS-ab5fcd47-121e-5e80-a051-e8e442829b86-attr-8-name" class="er entityLabel">token_type</text><rect height="22" width="231.98184204101562" y="178" x="167.7623748779297" class="er attributeBoxEven"/><text style="dominant-baseline: middle; font-size: 10.2px;" transform="translate(172.7623748779297,189)" y="0" x="0" id="text-entity-ACCOUNTS-ab5fcd47-121e-5e80-a051-e8e442829b86-attr-8-comment" class="er entityLabel"/><rect height="22" width="73.90780639648438" y="200" x="0" class="er attributeBoxOdd"/><text style="dominant-baseline: middle; font-size: 10.2px;" transform="translate(5,211)" y="0" x="0" id="text-entity-ACCOUNTS-ab5fcd47-121e-5e80-a051-e8e442829b86-attr-9-type" class="er entityLabel">text</text><rect height="22" width="93.85456848144531" y="200" x="73.90780639648438" class="er attributeBoxOdd"/><text style="dominant-baseline: middle; font-size: 10.2px;" transform="translate(78.90780639648438,211)" y="0" x="0" id="text-entity-ACCOUNTS-ab5fcd47-121e-5e80-a051-e8e442829b86-attr-9-name" class="er entityLabel">scope</text><rect height="22" width="231.98184204101562" y="200" x="167.7623748779297" class="er attributeBoxOdd"/><text style="dominant-baseline: middle; font-size: 10.2px;" transform="translate(172.7623748779297,211)" y="0" x="0" id="text-entity-ACCOUNTS-ab5fcd47-121e-5e80-a051-e8e442829b86-attr-9-comment" class="er entityLabel"/><rect height="22" width="73.90780639648438" y="222" x="0" class="er attributeBoxEven"/><text style="dominant-baseline: middle; font-size: 10.2px;" transform="translate(5,233)" y="0" x="0" id="text-entity-ACCOUNTS-ab5fcd47-121e-5e80-a051-e8e442829b86-attr-10-type" class="er entityLabel">text</text><rect height="22" width="93.85456848144531" y="222" x="73.90780639648438" class="er attributeBoxEven"/><text style="dominant-baseline: middle; font-size: 10.2px;" transform="translate(78.90780639648438,233)" y="0" x="0" id="text-entity-ACCOUNTS-ab5fcd47-121e-5e80-a051-e8e442829b86-attr-10-name" class="er entityLabel">id_token</text><rect height="22" width="231.98184204101562" y="222" x="167.7623748779297" class="er attributeBoxEven"/><text style="dominant-baseline: middle; font-size: 10.2px;" transform="translate(172.7623748779297,233)" y="0" x="0" id="text-entity-ACCOUNTS-ab5fcd47-121e-5e80-a051-e8e442829b86-attr-10-comment" class="er entityLabel"/><rect height="22" width="73.90780639648438" y="244" x="0" class="er attributeBoxOdd"/><text style="dominant-baseline: middle; font-size: 10.2px;" transform="translate(5,255)" y="0" x="0" id="text-entity-ACCOUNTS-ab5fcd47-121e-5e80-a051-e8e442829b86-attr-11-type" class="er entityLabel">text</text><rect height="22" width="93.85456848144531" y="244" x="73.90780639648438" class="er attributeBoxOdd"/><text style="dominant-baseline: middle; font-size: 10.2px;" transform="translate(78.90780639648438,255)" y="0" x="0" id="text-entity-ACCOUNTS-ab5fcd47-121e-5e80-a051-e8e442829b86-attr-11-name" class="er entityLabel">session_state</text><rect height="22" width="231.98184204101562" y="244" x="167.7623748779297" class="er attributeBoxOdd"/><text style="dominant-baseline: middle; font-size: 10.2px;" transform="translate(172.7623748779297,255)" y="0" x="0" id="text-entity-ACCOUNTS-ab5fcd47-121e-5e80-a051-e8e442829b86-attr-11-comment" class="er entityLabel"/><rect height="22" width="73.90780639648438" y="266" x="0" class="er attributeBoxEven"/><text style="dominant-baseline: middle; font-size: 10.2px;" transform="translate(5,277)" y="0" x="0" id="text-entity-ACCOUNTS-ab5fcd47-121e-5e80-a051-e8e442829b86-attr-12-type" class="er entityLabel">compositeKey</text><rect height="22" width="93.85456848144531" y="266" x="73.90780639648438" class="er attributeBoxEven"/><text style="dominant-baseline: middle; font-size: 10.2px;" transform="translate(78.90780639648438,277)" y="0" x="0" id="text-entity-ACCOUNTS-ab5fcd47-121e-5e80-a051-e8e442829b86-attr-12-name" class="er entityLabel">compoundKey</text><rect height="22" width="231.98184204101562" y="266" x="167.7623748779297" class="er attributeBoxEven"/><text style="dominant-baseline: middle; font-size: 10.2px;" transform="translate(172.7623748779297,277)" y="0" x="0" id="text-entity-ACCOUNTS-ab5fcd47-121e-5e80-a051-e8e442829b86-attr-12-comment" class="er entityLabel">provider, providerAccountId</text></g><g transform="translate(828.3399200439453,642 )" id="entity-LIKES-7146bcfe-6d31-59d8-a127-bdda685c9be2"><rect height="90" width="328.0731506347656" y="0" x="0" class="er entityBox"/><text style="dominant-baseline: middle; text-anchor: middle; font-size: 12px;" transform="translate(164.0365753173828,12)" y="0" x="0" id="text-entity-LIKES-7146bcfe-6d31-59d8-a127-bdda685c9be2" class="er entityLabel">LIKES</text><rect height="22" width="29.717254638671875" y="24" x="0" class="er attributeBoxOdd"/><text style="dominant-baseline: middle; font-size: 10.2px;" transform="translate(5,35)" y="0" x="0" id="text-entity-LIKES-7146bcfe-6d31-59d8-a127-bdda685c9be2-attr-1-type" class="er entityLabel">text</text><rect height="22" width="43.586761474609375" y="24" x="29.717254638671875" class="er attributeBoxOdd"/><text style="dominant-baseline: middle; font-size: 10.2px;" transform="translate(34.717254638671875,35)" y="0" x="0" id="text-entity-LIKES-7146bcfe-6d31-59d8-a127-bdda685c9be2-attr-1-name" class="er entityLabel">id</text><rect height="22" width="22.68768310546875" y="24" x="73.30401611328125" class="er attributeBoxOdd"/><text style="dominant-baseline: middle; font-size: 10.2px;" transform="translate(78.30401611328125,35)" y="0" x="0" id="text-entity-LIKES-7146bcfe-6d31-59d8-a127-bdda685c9be2-attr-1-key" class="er entityLabel">PK</text><rect height="22" width="232.08145141601562" y="24" x="95.99169921875" class="er attributeBoxOdd"/><text style="dominant-baseline: middle; font-size: 10.2px;" transform="translate(100.99169921875,35)" y="0" x="0" id="text-entity-LIKES-7146bcfe-6d31-59d8-a127-bdda685c9be2-attr-1-comment" class="er entityLabel">primaryKey</text><rect height="22" width="29.717254638671875" y="46" x="0" class="er attributeBoxEven"/><text style="dominant-baseline: middle; font-size: 10.2px;" transform="translate(5,57)" y="0" x="0" id="text-entity-LIKES-7146bcfe-6d31-59d8-a127-bdda685c9be2-attr-2-type" class="er entityLabel">text</text><rect height="22" width="43.586761474609375" y="46" x="29.717254638671875" class="er attributeBoxEven"/><text style="dominant-baseline: middle; font-size: 10.2px;" transform="translate(34.717254638671875,57)" y="0" x="0" id="text-entity-LIKES-7146bcfe-6d31-59d8-a127-bdda685c9be2-attr-2-name" class="er entityLabel">post_id</text><rect height="22" width="22.68768310546875" y="46" x="73.30401611328125" class="er attributeBoxEven"/><text style="dominant-baseline: middle; font-size: 10.2px;" transform="translate(78.30401611328125,57)" y="0" x="0" id="text-entity-LIKES-7146bcfe-6d31-59d8-a127-bdda685c9be2-attr-2-key" class="er entityLabel"/><rect height="22" width="232.08145141601562" y="46" x="95.99169921875" class="er attributeBoxEven"/><text style="dominant-baseline: middle; font-size: 10.2px;" transform="translate(100.99169921875,57)" y="0" x="0" id="text-entity-LIKES-7146bcfe-6d31-59d8-a127-bdda685c9be2-attr-2-comment" class="er entityLabel">notNull, references posts.id, onDelete: 'cascade'</text><rect height="22" width="29.717254638671875" y="68" x="0" class="er attributeBoxOdd"/><text style="dominant-baseline: middle; font-size: 10.2px;" transform="translate(5,79)" y="0" x="0" id="text-entity-LIKES-7146bcfe-6d31-59d8-a127-bdda685c9be2-attr-3-type" class="er entityLabel">text</text><rect height="22" width="43.586761474609375" y="68" x="29.717254638671875" class="er attributeBoxOdd"/><text style="dominant-baseline: middle; font-size: 10.2px;" transform="translate(34.717254638671875,79)" y="0" x="0" id="text-entity-LIKES-7146bcfe-6d31-59d8-a127-bdda685c9be2-attr-3-name" class="er entityLabel">userId</text><rect height="22" width="22.68768310546875" y="68" x="73.30401611328125" class="er attributeBoxOdd"/><text style="dominant-baseline: middle; font-size: 10.2px;" transform="translate(78.30401611328125,79)" y="0" x="0" id="text-entity-LIKES-7146bcfe-6d31-59d8-a127-bdda685c9be2-attr-3-key" class="er entityLabel"/><rect height="22" width="232.08145141601562" y="68" x="95.99169921875" class="er attributeBoxOdd"/><text style="dominant-baseline: middle; font-size: 10.2px;" transform="translate(100.99169921875,79)" y="0" x="0" id="text-entity-LIKES-7146bcfe-6d31-59d8-a127-bdda685c9be2-attr-3-comment" class="er entityLabel">notNull, references users.id, onDelete: 'cascade'</text></g><rect height="14" width="17.861328125" y="165.9609375" x="299.9775390625" class="er relationshipLabelBox"/><text style="text-anchor: middle; dominant-baseline: middle; font-size: 12px;" y="172.9609375" x="308.908203125" id="rel1" class="er relationshipLabel">has</text><rect height="14" width="17.861328125" y="195.56732177734375" x="679.6972045898438" class="er relationshipLabelBox"/><text style="text-anchor: middle; dominant-baseline: middle; font-size: 12px;" y="202.56732177734375" x="688.6278686523438" id="rel2" class="er relationshipLabel">has</text><rect height="14" width="17.861328125" y="614.1497802734375" x="472.32037353515625" class="er relationshipLabelBox"/><text style="text-anchor: middle; dominant-baseline: middle; font-size: 12px;" y="621.1497802734375" x="481.25103759765625" id="rel3" class="er relationshipLabel">has</text><rect height="14" width="58.697265625" y="213.7140350341797" x="362.92431640625" class="er relationshipLabelBox"/><text style="text-anchor: middle; dominant-baseline: middle; font-size: 12px;" y="220.7140350341797" x="392.27294921875" id="rel4" class="er relationshipLabel">belongs_to</text><rect height="14" width="58.697265625" y="308.2685241699219" x="959.7430419921875" class="er relationshipLabelBox"/><text style="text-anchor: middle; dominant-baseline: middle; font-size: 12px;" y="315.2685241699219" x="989.0916748046875" id="rel5" class="er relationshipLabel">belongs_to</text><rect height="14" width="58.697265625" y="509.9822998046875" x="714.381591796875" class="er relationshipLabelBox"/><text style="text-anchor: middle; dominant-baseline: middle; font-size: 12px;" y="516.9822998046875" x="743.730224609375" id="rel6" class="er relationshipLabel">belongs_to</text></svg>
