<svg xmlns="http://www.w3.org/2000/svg" xmlns:xlink="http://www.w3.org/1999/xlink" preserveAspectRatio="xMidYMid meet"
    version="1.0" viewBox="-0.6 0.0 308.3 344.8" zoomAndPan="magnify" style="fill: rgb(0, 0, 0);"
    original_string_length="6292">
    <g id="__id199_s8e9c38vm">
        <path
            d="M66.4006,129.1053c0,27.8303-14.6733,34.4184-28.7737,35.6134 c-13.9152,1.1792-33.9624-4.717-34.9058-30.6605s14.151-40.5662,31.6039-40.5662C49.8911,93.4919,66.4006,100.0957,66.4006,129.1053 z M112.2401,94.7911c-20.097,0-37.4781,16.838-36.3918,46.7119c1.0863,29.8739,24.1707,32.6634,40.1939,31.3055 c16.2366-1.376,33.1328-4.9622,33.1328-37.0087C149.175,102.3954,130.1644,94.7911,112.2401,94.7911z"
            style="fill: rgb(255, 255, 255);" />
    </g>
    <g id="__id200_s8e9c38vm">
        <path
            d="M276.2939,314.6739c-22.5074-2.4971-25.9609-15.0405-31.3006-26.9059 c-9.7686-21.7066-33.7867-2.8806-39.1042-22.0266c-3.6236-13.0468,0.0005-64.4081,0.0005-98.772 c0-34.364-16.7629-110.6354-93.8724-110.6354c-17.3789,0-46.0749,8.9542-68.8322,35.2615 c-2.9659-0.5554-5.9637-0.7809-8.8602-0.7809c-8.8689,0-17.1302,3.5021-23.2616,9.8609 c-5.3789,5.5776-11.6567,15.9139-11.0182,33.4797c0.3943,10.8331,3.9513,19.3004,10.5726,25.1661 c0.5101,0.452,1.0292,0.8773,1.5543,1.2824c-0.774,4.2556-2.7474,14.5896-3.2468,24.9957 C3.8963,290.3676,12.2778,344.8472,116.2079,344.009s172.6582-4.1907,178.5252-4.1907 C307.7244,339.8183,302.7343,317.6075,276.2939,314.6739z M13.3672,154.56c-4.9658-4.8341-7.6492-11.7548-7.9705-20.5993 c-0.4518-12.416,2.8406-22.6409,9.521-29.5681c5.1132-5.3031,12.0055-8.2231,19.4071-8.2231c1.7135,0,3.3456,0.0864,4.9069,0.2485 C28.0623,110.8271,18.6913,129.8456,13.3672,154.56z M115.5745,171.4238c-13.9152,1.1792-33.9624-4.717-34.9059-30.6606 c-0.9434-25.9435,14.151-40.5662,31.6039-40.5662c15.5661,0,32.0757,6.6038,32.0757,35.6134 C144.3483,163.6408,129.675,170.2289,115.5745,171.4238z"
            style="fill: rgb(99, 77, 159);" />
    </g>
    <g id="__id201_s8e9c38vm">
        <path
            d="M204.2935,232.7176c0,0-26.1017-4.955-24.1233-35.6205s25.7194-30.1277,25.7194-30.1277 C205.2502,200.2794,204.2935,232.7176,204.2935,232.7176z M174.9813,229.0999c-7.0828-13.9498-33.0077-4.368-26.0189,14.8512 S186.576,251.9362,174.9813,229.0999z M16.1084,291.6073c0,0,32.4192-8.783,25.8479-39.2908 c-6.0273-27.9823-34.1327-23.7622-34.1327-23.7622C7.8235,272.7666,16.1084,291.6073,16.1084,291.6073z M59.2958,271.2552 c-7.9765,0-12.0822,6.6366-11.712,16.1465c0.5333,13.7005,24.1978,12.1996,25.0689,0 C73.3005,278.3289,69.9311,271.2552,59.2958,271.2552z M216.4389,287.4646c-7.1705,0-10.8614,5.966-10.5286,14.5151 c0.4794,12.3162,21.7528,10.9669,22.5359,0C229.0285,293.8235,225.9995,287.4646,216.4389,287.4646z"
            opacity=".35" style="fill: rgb(255, 222, 89);" />
    </g>
    <g id="__id202_s8e9c38vm">
        <path
            d="M70.8033,22.5536c0.7376-1.4039,1.0758-2.9168,1.0146-4.5388c-0.1403-1.0439-0.2805-2.0879-0.4208-3.1318 c-0.5597-1.9957-1.5696-3.7285-3.0296-5.1984c-0.7948-0.614-1.5895-1.228-2.3842-1.842c-1.8374-1.0657-3.8194-1.6018-5.9459-1.6084 c-0.1154,0-0.2309,0-0.3463,0c-1.6219-0.0612-3.1349,0.277-4.5389,1.0146c-1.4605,0.4751-2.7243,1.287-3.7913,2.4358 c-1.1488,1.067-1.9607,2.3308-2.4358,3.7913c-0.7376,1.4039-1.0758,2.9169-1.0146,4.5389c0.1403,1.0439,0.2806,2.0878,0.4208,3.1317 c0.5597,1.9957,1.5696,3.7285,3.0296,5.1984c0.7948,0.6141,1.5895,1.228,2.3842,1.8421c1.8375,1.0657,3.8194,1.6018,5.9459,1.6084 c0.1154,0,0.2309,0,0.3463,0c1.6219,0.0612,3.1349-0.277,4.5389-1.0146c0.065-0.0211,0.1241-0.0522,0.1883-0.0746 c9.1259,9.4967,15.7371,20.9981,19.3089,33.5075c2.2015-0.8086,4.5804-1.5579,7.0412-2.4639 c-3.9021-13.4371-10.9627-25.8049-20.7735-36.0606C70.5182,23.3241,70.6753,22.9474,70.8033,22.5536z M59.5659,22.6632 c-2.8916,0-5.2358-2.3441-5.2358-5.2358s2.3442-5.2358,5.2358-5.2358c2.8916,0,5.2358,2.3441,5.2358,5.2358 S62.4575,22.6632,59.5659,22.6632z M127.379,21.4798C135.2414,15.7257,132.9944,0,120.586,0 c-15.0191,0-15.1745,23.1097-0.4115,23.541c2.719,8.8291,4.2849,17.8667,4.4015,27.1363 c0.1155,9.1788-0.4353,19.8976-4.5996,28.2569c-2.1448,4.3054,4.3195,8.1071,6.4732,3.7837 c4.5206-9.0744,5.5547-20.072,5.6283-30.091C132.1554,42.0598,130.4919,31.5631,127.379,21.4798z M120.6457,17.4274 c-2.9316,0-5.3082-2.3766-5.3082-5.3083s2.3766-5.3082,5.3082-5.3082c2.9317,0,5.3083,2.3766,5.3083,5.3082 S123.5773,17.4274,120.6457,17.4274z"
            style="fill: rgb(46, 39, 103);" />
    </g>
    <g id="__id203_s8e9c38vm">
        <path
            d="M127.8574,145.6375c-2.8302,17.5877-28.7737,20.2525-31.1322,0 c-2.3585-20.2525,6.1321-28.7799,16.0378-28.7799C125.9706,116.8576,130.6876,128.0498,127.8574,145.6375z M16.0621,143.7158 c3.937-13.9365,9.2317-25.844,15.3885-35.9637c-0.5407-0.0417-1.0915-0.0703-1.664-0.0703c-9.9057,0-18.3963,8.5274-16.0378,28.7799 C14.0839,139.3404,14.908,141.7402,16.0621,143.7158z"
            style="fill: rgb(14, 15, 26);" />
    </g>
    <g id="__id204_s8e9c38vm">
        <path
            d="M166.2502,292.9483c-0.0552,0.19-0.1227,0.3738-0.1881,0.5587c2.6694,0.9521,5.153,1.4418,5.0885,3.5927 c-0.0466,1.5531-2.4331,3.6125-5.4545,3.4757c-1.5714-0.0711-3.2773-0.5693-4.7349-1.124c1.4498,1.3198,2.4899,2.4965,1.806,3.9777 c-0.6514,1.4108-3.654,2.3704-6.3802,1.0609c-1.6394-0.7875-3.2217-2.1699-4.4231-3.39 c-8.3295-0.6159-16.0338-6.5931-20.8546-13.0884c-3.3118-4.4621-5.6562-9.5577-7.6589-14.7161 c-2.1443-5.5231-3.8632-11.2111-5.1483-16.9946c-2.5836-11.6284-3.4561-23.6274-2.5379-35.5037c0.0941-1.2166,0.9545-2.25,2.25-2.25 c1.1487,0,2.3438,1.0369,2.25,2.25c-0.9596,12.412,0.0251,24.9175,3.0102,37.0068c1.3181,5.3381,3.0029,10.5929,5.0677,15.6896 c1.9012,4.6929,4.2548,9.3739,7.4821,13.3052c2.9839,3.6349,6.7706,6.8182,11.2153,8.4907 c3.8073,1.4327,8.5303,2.1367,12.2012-0.0671c4.1368-2.4833,3.0446-7.491,1.3407-11.1735 c-1.0837-2.3422-2.4278-4.5481-3.6317-6.8279c-1.2946-2.4515-2.4757-4.9595-3.5576-7.5118 c-4.2599-10.0499-6.8159-20.7047-7.6229-31.59c-0.0903-1.2184,1.102-2.25,2.25-2.25c1.2802,0,2.1602,1.038,2.25,2.25 c0.9509,12.8248,4.5599,25.4567,10.5662,36.8306c1.7748,3.361,4.02,6.8293,5.1355,10.5574 c0.2832,0.0581,0.5427,0.0984,0.7537,0.1072c3.2795,0.136,6.3821-0.6796,7.1536,1.6317c0.4919,1.4739-1.0379,4.23-3.921,5.1437 C168.8082,292.7538,167.5011,292.9033,166.2502,292.9483z M46.1677,149.1296c-0.8268,2.8776-3.336,5.673-6.2736,5.7878 c-0.6854,0.0267-1.2789-0.0883-1.7498-0.3121c-0.7985-0.3796-1.1846-0.7087-1.7537-1.3851 c-0.8553-1.0166-1.3081-2.4512-1.2683-3.8267c0.0671-2.3174-3.533-2.3154-3.6,0c-0.1309,4.5234,3.4133,9.1579,8.1684,9.1291 c4.8132-0.0291,8.6837-4.0339,9.9484-8.436C50.28,147.8559,46.8073,146.9034,46.1677,149.1296z"
            style="fill: rgb(255, 222, 89);" />
    </g>
</svg>